# xmcd database file
#
# Track frame offsets:
# 150
# 13903
# 33862
# 50660
# 63282
# 80428
# 97386
# 113024
# 131461
# 146606
# 162824
# 184741
#
# Disc length: 2670 seconds
#
# Revision: 1
# Processed by: cddbd v1.4PL0 Copyright (c) Steve Scherf et al.
# Submitted via: CD-Runner 2003.05
#
DISCID=a00a6c0c
DTITLE=Rufus Perryman (Speckled Red) - The Barrel-House Blues of Speckled Red
DYEAR=1961
DGENRE=Blues
TTITLE0=T'ain't Nobody's Biz-ness If I Do
TTITLE1=Uncle Sam's Blues
TTITLE2=Cow Cow Blues
TTITLE3=If I Could Be With You
TTITLE4=It Feels So Good
TTITLE5=Why Don't You Practise What You Preach
TTITLE6=Pinetop's Boogie Woogie
TTITLE7=I Got A Feeling That I'm Falling
TTITLE8=How Long Blues
TTITLE9=Baby Won't You Please Come Home
TTITLE10=If I Had A Million Dollars
TTITLE11=You Ain't No Good
EXTD=Originally recorded by Dansk, Denmark
EXTT0=
EXTT1=
EXTT2=
EXTT3=
EXTT4=
EXTT5=
EXTT6=
EXTT7=
EXTT8=
EXTT9=
EXTT10=
EXTT11=
PLAYORDER=
